<svg enable_background="new 0 0 1000 1136" height="1136" pretty_print="False" version="1" viewBox="0" width="1000" 
xmlns="http://www.w3.org/2000/svg" 
xmlns:xlink="http://www.w3.org/1999/xlink" 
style="fill:none;stroke-linejoin:round;stroke:#000"> 
<defs> <style type="text/css"> path { fill-rule: evenodd; } </style> 
</defs> <metadata> <views> <view h="1136" padding="0" w="1000"> <proj id="laea" lat0="16" lon0="76"/> 
<bbox h="365" w="321" x="912" y="741"/> </view> </views> 
<desc>
Created by Jayahari (www.jayahari.com) using shape files from Open Street Maps and Maptell.com
</desc>
</metadata> 
<g class="" id="state"> 
<path d="M953 1130L953 1131 953 1131 953 1130ZM950 1117L949 1116 949 1117 950 1117ZM955 1134L957 1133 958 1131 959 1126 956 1119 955 1116 953 1117 948 1119 948 1124 950 1125 952 1128 955 1134ZM951 1109L951 1109 951 1110 951 1109ZM948 1109L948 1110 948 1110 948 1109ZM949 1108L949 1110 946 1111 947 1116 951 1111 949 1108ZM946 1107L946 1107 946 1107 946 1107ZM934 1091L934 1091 934 1091 934 1091ZM934 1091L934 1091 934 1091 934 1091ZM935 1086L933 1089 934 1091 939 1092 935 1086ZM942 1086L940 1087 943 1089 943 1087 942 1086ZM943 1082L942 1082 943 1085 943 1082ZM940 1078L938 1080 939 1084 941 1084 942 1085 940 1078ZM929 1077L930 1079 930 1079 929 1077ZM925 1074L924 1077 924 1079 928 1080 926 1078 925 1074ZM944 1071L944 1071 944 1071 944 1071ZM922 1070L922 1071 922 1071 922 1070ZM943 1064L943 1064 943 1064 943 1064ZM911 1046L911 1046 911 1046 911 1046ZM911 1046L911 1046 911 1046 911 1046ZM912 1045L912 1045 912 1045 912 1045ZM910 1041L909 1046 911 1046 912 1043 913 1042 910 1041ZM897 978L896 978 893 982 892 982 892 987 893 988 892 992 894 991 897 993 898 992 899 990 900 985 898 981 898 979 897 978ZM900 976L900 976 900 976 900 976ZM886 975L885 976 886 976 886 975ZM902 974L902 974 902 974 902 974ZM904 968L904 968 904 968 904 968ZM904 967L904 968 904 967 904 967ZM903 962L902 963 903 963 903 962ZM897 958L897 958 897 958 897 958ZM901 954L901 954 901 954 901 954ZM900 954L900 953 900 953 900 954ZM900 954L898 959 900 960 901 955 900 954ZM898 953L898 953 898 953 898 953ZM898 952L898 953 899 953 898 952ZM897 952L897 952 897 952 897 952ZM897 952L897 952 897 952 897 952ZM898 953L898 952 898 952 898 953ZM898 951L898 951 899 952 898 951ZM884 952L884 954 886 954 884 952ZM896 950L896 952 896 952 896 950ZM902 948L901 948 901 948 902 948ZM902 946L902 947 902 947 902 946ZM896 946L896 946 896 946 896 946ZM897 938L897 938 897 938 897 938ZM896 937L896 937 896 937 896 937ZM902 936L902 936 902 936 902 936ZM902 936L902 936 902 936 902 936ZM903 936L902 936 903 936 903 936ZM897 936L897 938 897 937 897 936ZM896 936L897 936 896 936 896 936ZM904 934L903 934 903 934 904 934ZM911 932L911 936 912 936 911 932ZM911 929L910 930 910 931 911 929ZM911 929L911 929 911 929 911 929ZM910 929L910 930 910 931 910 929ZM898 930L898 930 898 930 898 930ZM898 930L898 930 898 930 898 930ZM916 928L916 928 916 928 916 928ZM906 928L906 928 906 928 906 928ZM912 928L910 928 914 931 912 928ZM914 925L913 929 915 929 914 925ZM900 926L900 926 900 926 900 926ZM912 925L912 925 912 925 912 925ZM909 925L909 925 909 926 909 925ZM900 925L898 931 897 940 896 937 894 941 895 941 896 946 898 949 898 950 901 954 902 955 904 949 903 947 904 945 904 937 902 939 902 934 904 933 902 930 902 927 900 928 900 925ZM901 925L902 927 903 927 901 925ZM906 925L906 924 906 925 906 925ZM900 925L900 925 900 925 900 925ZM914 923L915 924 915 923 914 923ZM901 924L901 924 901 924 901 924ZM912 923L912 923 912 923 912 923ZM902 923L901 925 902 924 902 923ZM907 923L907 922 907 923 907 923ZM902 923L902 923 902 923 902 923ZM909 923L908 924 908 925 909 923ZM903 922L902 925 903 927 902 931 905 928 907 927 907 923 903 922ZM914 921L913 921 914 921 914 921ZM942 919L942 922 943 921 942 919ZM908 921L908 920 908 920 908 921ZM907 919L907 919 907 919 907 919ZM905 918L906 919 906 919 905 918ZM905 918L905 918 905 918 905 918ZM909 918L909 918 908 920 909 918ZM906 917L906 917 906 917 906 917ZM899 914L898 914 899 914 899 914ZM900 906L900 906 900 906 900 906ZM900 905L900 905 900 905 900 905ZM897 905L897 905 897 905 897 905ZM899 905L899 904 899 904 899 905ZM900 905L899 904 899 904 900 905ZM899 904L899 904 899 904 899 904ZM899 903L899 903 899 903 899 903ZM900 902L900 902 900 902 900 902ZM900 901L900 901 900 901 900 901ZM900 901L899 901 899 902 900 901ZM901 901L901 901 901 901 901 901ZM901 901L901 901 901 901 901 901ZM901 900L901 900 901 900 901 900ZM906 899L905 899 905 899 906 899ZM904 899L904 899 904 899 904 899ZM906 898L906 899 906 899 906 898ZM901 899L901 899 901 899 901 899ZM907 898L907 898 907 899 907 898ZM901 899L901 899 901 899 901 899ZM906 899L902 900 901 902 900 902 899 904 900 908 899 911 899 911 900 919 901 923 905 922 907 922 907 917 907 918 909 914 909 910 908 905 907 900 906 899ZM901 898L901 898 901 898 901 898ZM905 898L905 898 905 898 905 898ZM897 898L897 898 897 898 897 898ZM897 898L897 898 897 898 897 898ZM898 896L897 898 897 902 898 904 899 900 898 896ZM909 895L908 896 908 897 909 895ZM909 895L909 895 909 895 909 895ZM907 894L907 894 907 894 907 894ZM906 894L906 895 907 895 906 894ZM906 894L906 893 906 893 906 894ZM907 893L907 893 907 893 907 893ZM906 893L906 893 906 893 906 893ZM911 886L911 886 911 886 911 886ZM911 883L911 883 911 883 911 883ZM909 882L909 883 909 882 909 882ZM907 882L907 882 907 882 907 882ZM909 882L909 882 909 882 909 882ZM911 881L911 880 911 880 911 881ZM910 880L910 880 910 880 910 880ZM903 879L903 879 903 879 903 879ZM901 879L901 880 901 879 901 879ZM912 879L911 879 911 879 912 879ZM912 878L912 878 912 878 912 878ZM902 878L901 879 902 879 902 878ZM955 873L954 874 955 874 955 873ZM903 876L903 876 903 876 903 876ZM904 874L904 875 904 875 904 874ZM903 874L903 875 903 875 903 874ZM908 873L908 873 908 873 908 873ZM910 873L910 873 910 873 910 873ZM909 873L907 875 906 874 904 876 902 883 901 895 902 898 904 900 905 900 907 893 909 894 910 892 910 888 910 885 907 882 909 881 911 883 909 879 909 873ZM910 869L909 870 909 870 910 869ZM908 869L907 869 908 871 908 869ZM920 853L920 853 920 853 920 853ZM919 849L919 850 920 851 919 849ZM919 848L919 848 919 848 919 848ZM924 824L924 824 924 824 924 824ZM925 822L925 822 925 822 925 822ZM925 821L925 821 925 821 925 821ZM925 821L925 821 925 821 925 821ZM927 819L926 821 926 821 927 819Z"  data-id="1" data-name="Andaman and Nicobar"/> 
<path d="M435 901L435 901 435 901 435 901ZM434 899L433 900 434 900 434 899ZM432 898L432 898 432 899 432 898ZM432 898L432 898 432 898 432 898ZM427 896L427 896 427 896 427 896ZM429 894L428 894 428 894 429 894ZM429 893L429 894 429 894 429 893ZM429 892L429 893 429 893 429 892ZM426 834L426 834 426 834 426 834ZM431 822L431 822 431 822 431 822ZM461 811L461 812 461 812 461 811ZM452 808L452 809 452 809 452 808ZM480 788L479 789 480 789 480 788ZM480 788L479 788 479 788 480 788ZM508 779L508 779 508 779 508 779ZM507 774L507 774 507 774 507 774 507 774ZM508 773L508 773 508 774 508 773ZM507 774L506 775 506 775 506 775 508 778 507 774 507 774ZM538 740L538 740 538 740 538 740ZM541 734L541 734 541 734 541 734ZM507 774L509 770 505 766 506 763 509 759 514 754 521 749 532 744 536 741 538 740 544 734 547 728 552 723 555 719 559 717 570 711 572 710 573 706 580 700 582 697 593 680 593 680 592 679 592 679 592 679 592 679 592 679 592 679 588 678 589 680 587 682 586 680 583 684 581 683 582 686 579 688 579 689 578 691 572 692 569 693 567 691 565 691 561 690 559 686 558 684 551 679 551 682 550 681 549 684 548 684 547 682 546 684 546 687 543 684 541 685 542 688 542 686 544 691 540 693 534 694 532 699 534 703 531 707 533 708 529 710 526 709 526 708 523 707 522 711 514 709 514 707 511 703 507 708 507 712 506 717 508 719 507 723 504 722 504 725 501 723 497 722 487 728 482 730 481 732 476 733 473 733 472 733 472 733 468 733 464 731 461 734 459 731 458 729 454 721 451 718 448 719 448 711 446 709 439 702 433 703 431 699 431 699 431 699 425 700 422 698 418 696 419 694 418 689 416 684 419 682 418 679 419 674 419 672 417 669 412 665 411 665 407 667 404 668 404 667 400 668 393 666 393 666 392 671 391 671 386 668 383 668 384 666 383 664 379 664 378 660 374 659 370 658 367 657 366 658 363 657 360 654 359 654 361 659 361 661 358 663 359 667 358 668 358 672 355 673 353 680 350 680 349 678 346 676 343 678 344 678 342 686 340 687 340 690 343 691 343 693 345 696 341 700 339 702 339 706 333 708 334 709 333 711 331 711 332 716 332 716 333 717 334 719 334 724 332 725 332 726 336 728 336 730 334 731 334 732 331 736 332 737 332 738 329 739 328 744 332 744 338 747 331 750 331 752 329 752 328 755 329 756 326 760 329 762 331 766 330 766 330 775 328 777 330 778 328 779 330 782 325 786 324 786 322 788 328 791 332 790 334 793 332 794 331 794 331 800 331 801 331 808 322 806 318 807 315 808 314 811 314 815 317 819 316 818 314 819 314 824 312 825 313 825 314 829 317 831 319 833 318 833 317 839 314 842 308 842 305 840 304 841 308 844 307 851 306 851 304 859 305 861 308 863 312 863 311 866 309 868 311 872 317 873 317 870 323 869 323 871 326 871 327 874 328 874 327 870 329 869 332 875 332 876 327 877 326 879 326 881 328 882 328 886 326 885 325 881 318 881 314 879 314 875 311 875 309 875 312 878 311 880 314 884 312 889 313 892 314 890 316 891 317 891 319 890 318 887 321 886 324 887 325 888 326 887 330 889 330 894 333 891 333 892 339 890 339 892 342 888 343 884 344 884 347 885 349 883 349 885 348 886 354 887 355 890 353 893 353 895 358 896 357 898 359 897 361 897 364 901 364 906 365 908 371 909 372 913 371 914 368 921 366 921 366 924 363 922 360 925 359 929 359 929 359 929 359 932 361 931 365 934 368 932 369 930 371 929 374 922 374 920 375 919 377 919 378 917 384 916 387 916 391 919 394 919 395 916 399 914 399 915 403 910 403 907 408 907 409 909 413 908 414 911 417 910 417 908 420 907 423 904 425 900 425 898 429 899 433 900 437 904 437 902 437 902 435 900 431 899 427 896 430 894 430 891 435 897 434 892 434 888 430 879 430 870 428 851 427 849 427 847 426 841 426 838 427 831 428 828 431 823 432 818 435 814 440 810 444 808 449 807 452 808 454 814 456 814 461 811 460 809 465 804 468 796 470 792 474 789 473 788 480 788 480 789 490 788 499 784 506 780 506 775 506 775 503 774 507 774 507 774Z"  data-id="2" data-name="Andhra Pradesh"/>
<path d="M827 362L830 362 837 360 839 358 843 358 845 355 849 354 854 355 855 357 858 358 869 355 877 355 880 354 885 349 884 346 886 343 897 330 895 327 900 328 902 327 904 328 911 324 930 313 933 314 937 312 940 309 947 307 952 308 951 309 947 316 948 322 951 323 952 329 957 330 953 333 952 333 943 337 941 336 939 338 939 341 935 343 933 346 931 346 931 346 931 346 932 348 932 352 934 355 934 359 934 359 937 359 940 358 944 352 945 353 947 349 950 349 950 346 953 344 956 342 958 336 965 332 966 332 973 330 974 331 976 329 981 327 983 327 987 331 986 332 988 334 990 334 994 336 997 334 996 333 992 329 990 327 987 323 987 320 985 317 987 314 988 311 992 307 996 304 997 304 999 300 996 298 996 294 998 293 995 291 987 287 983 289 979 288 973 286 969 286 964 290 960 288 962 285 961 285 969 274 968 273 963 267 964 262 962 264 958 265 953 270 952 269 953 268 951 264 953 261 957 259 958 256 955 257 951 255 951 254 947 249 942 253 938 255 934 258 930 261 931 262 928 268 922 268 922 267 917 266 916 265 914 266 912 265 907 265 906 264 899 259 899 261 895 265 894 265 889 269 886 276 882 280 882 283 880 288 877 287 875 288 869 289 865 289 860 292 859 296 856 299 858 302 858 304 855 304 851 308 849 307 846 311 844 310 841 313 841 315 844 318 843 320 840 323 838 325 830 327 828 324 825 326 822 328 819 329 815 330 814 329 809 328 808 326 804 327 805 328 807 329 807 332 805 335 809 341 810 340 820 340 823 341 824 345 826 347 824 348 824 351 823 351 824 355 825 356 827 359 827 362 827 362Z"  data-id="3" data-name="Arunachal Pradesh"/> 
<path d="M756 420L756 421 756 422 756 423 756 423 756 423 756 420 756 420ZM756 420L756 420 756 420 756 420 756 420 756 420ZM827 362L825 364 824 364 819 362 817 364 813 367 807 368 804 366 800 369 799 368 794 368 792 370 775 370 770 367 768 367 766 369 762 371 763 372 759 374 752 376 751 376 752 381 753 388 752 388 749 391 748 394 749 397 749 397 755 405 755 412 754 413 757 417 756 420 756 420 760 418 761 418 756 413 758 411 759 409 763 404 766 404 769 403 772 401 776 401 778 403 777 405 780 403 781 403 789 402 795 404 795 406 801 405 801 409 807 404 810 403 813 397 815 397 815 398 818 396 818 395 823 393 824 396 827 396 831 394 833 393 837 393 836 395 833 398 835 400 834 404 835 408 837 407 843 405 844 407 845 407 848 410 849 411 851 410 852 411 849 414 851 417 857 420 857 423 858 424 855 425 852 428 849 428 850 429 848 430 846 432 846 432 847 435 849 435 849 438 846 439 842 437 840 438 843 445 842 453 842 453 844 459 842 463 845 463 845 463 845 463 849 463 850 465 852 466 854 463 855 462 857 458 858 458 860 451 863 455 869 455 869 455 869 454 871 441 874 438 875 432 878 425 877 424 881 419 881 418 881 418 880 414 877 412 875 410 878 406 879 406 884 399 886 397 886 395 888 392 889 394 889 397 890 397 893 396 896 393 894 391 895 387 895 384 899 376 900 376 900 373 903 367 903 370 904 371 906 369 907 365 911 361 911 361 915 359 919 356 922 351 928 349 930 347 931 346 931 346 933 346 935 343 939 341 939 338 941 336 943 337 952 333 953 333 957 330 952 329 951 323 948 322 947 316 951 309 952 308 947 307 940 309 937 312 933 314 930 313 911 324 904 328 902 327 900 328 895 327 897 330 886 343 884 346 885 349 880 354 877 355 869 355 858 358 855 357 854 355 849 354 845 355 843 358 839 358 837 360 830 362 827 362 827 362Z"  data-id="4" data-name="Assam"/> 
<path d="M692 386L692 387 692 387 692 387 692 387 692 387 692 386 692 386 692 386ZM545 364L547 365 547 368 549 370 548 372 549 374 551 373 552 375 553 381 557 383 558 381 559 385 562 388 565 389 565 390 559 391 554 390 553 394 548 395 548 398 552 398 557 400 558 404 555 406 553 406 553 409 554 411 563 417 566 417 571 420 571 421 573 421 575 424 572 424 570 426 568 426 567 424 565 424 563 427 561 428 558 425 556 426 555 429 549 434 547 436 548 436 542 441 541 441 534 445 531 447 532 450 531 452 532 456 532 457 534 461 536 464 537 464 538 466 538 467 539 468 538 472 538 472 539 472 546 473 551 471 556 468 557 468 560 473 560 471 566 470 566 473 567 476 574 479 574 476 579 475 584 470 587 476 590 476 593 474 593 475 597 473 596 472 604 469 608 468 608 469 610 466 614 466 613 464 615 457 618 458 622 460 625 459 627 458 629 461 629 464 631 465 635 465 640 472 642 473 643 471 643 467 647 464 649 465 653 464 654 465 657 465 657 464 658 462 662 463 663 458 662 454 665 453 664 446 665 445 668 443 669 444 669 439 674 439 675 437 677 434 682 434 685 437 686 438 686 438 687 435 685 432 689 425 694 427 693 423 693 421 693 419 688 416 687 413 685 413 685 406 686 404 689 404 688 402 697 396 699 394 697 392 698 391 695 388 697 386 694 387 692 387 692 387 692 390 692 392 687 391 686 390 684 391 682 390 681 392 678 391 677 393 675 394 671 392 668 393 666 395 663 393 661 394 658 392 657 387 655 389 651 391 649 393 647 392 646 394 639 390 632 388 632 387 625 388 625 387 621 386 619 387 618 388 615 390 610 386 610 382 606 379 602 382 597 384 592 384 590 380 587 379 582 376 578 375 575 375 572 374 573 370 574 367 572 364 570 363 560 362 554 357 553 357 551 360 545 361 545 364 545 364ZM661 338L661 338 661 339 661 338ZM659 338L659 338 659 338 659 338Z"  data-id="5" data-name="Bihar"/> 
<path d="M303 242L304 241 303 241 303 240 303 239 303 239 299 239 300 242 303 242 303 242 303 242Z"  data-id="6" data-name="Chandigarh"/> 
<path d="M533 489L533 489 529 494 528 495 523 498 520 498 515 495 515 495 515 495 509 498 506 500 500 501 495 501 494 500 493 501 487 500 484 500 480 502 479 502 475 498 473 499 475 504 476 506 472 510 473 514 478 511 479 512 484 512 486 514 487 517 488 518 494 520 493 524 493 527 492 529 490 529 485 530 486 534 480 538 481 542 480 546 476 548 474 551 471 551 467 554 463 553 462 554 460 553 457 556 457 563 454 563 452 568 451 568 448 576 448 578 446 582 445 582 444 588 445 593 442 598 442 598 442 598 443 599 439 603 435 604 435 606 435 610 434 611 437 614 438 613 440 623 438 624 437 626 438 627 441 626 442 628 441 634 442 637 438 639 437 639 434 640 435 642 434 643 439 645 440 649 438 652 435 652 438 654 436 657 439 656 442 659 442 660 446 664 450 666 453 669 449 672 451 674 446 677 445 675 443 676 441 672 432 683 433 684 431 690 434 694 432 696 431 698 431 699 431 699 433 703 439 702 446 709 448 711 448 719 451 718 454 721 458 729 459 731 461 734 464 731 468 733 472 733 472 733 472 732 473 730 474 730 475 727 476 724 477 719 477 716 479 714 485 712 490 703 492 702 490 701 494 698 497 696 500 694 500 690 502 689 501 682 500 680 498 672 499 670 496 668 496 667 494 667 494 665 494 658 492 656 486 650 487 647 489 645 491 645 493 647 494 646 499 648 501 648 502 649 505 654 509 651 514 652 514 656 518 651 518 649 517 647 514 648 506 645 506 641 507 639 507 635 506 634 507 632 504 625 504 622 503 615 503 613 507 615 512 609 513 603 515 603 519 603 521 602 525 602 530 604 533 603 534 598 536 595 538 594 540 595 539 591 538 588 539 584 543 583 541 582 543 579 543 577 544 577 546 575 546 572 545 572 544 567 546 566 546 564 547 561 548 560 551 559 556 556 560 554 559 548 560 548 560 548 560 546 566 543 568 542 568 539 569 539 572 535 572 530 567 531 565 529 564 530 563 527 561 526 559 524 561 517 557 516 557 514 558 511 558 507 557 506 555 506 547 504 548 503 546 499 541 496 539 491 537 491 536 489 533 489 533 489Z"  data-id="7" data-name="Chhattisgarh"/> 
<path d="M166 642L167 643 167 646 170 648 170 647 174 648 175 646 175 646 175 646 173 643 171 644 170 642 174 638 172 639 171 637 169 639 165 640 167 642 166 642Z"  data-id="8" data-name="Dadra and Nagar Haveli"/> 
<path d="M163 632L162 633 162 633 161 636 161 636 163 635 162 634 163 632 163 632ZM91 621L92 621 92 621 92 621 92 621 92 621 91 621 91 621ZM92 622L93 621 94 622 95 621 95 621 94 620 92 621 92 622 92 622ZM84 619L86 621 88 621 91 621 91 621 91 621 90 621 91 620 91 620 91 620 91 620 91 620 91 620 92 618 92 612 91 611 88 612 87 611 85 616 84 619 84 619Z"  data-id="9" data-name="Daman and Diu"/> 
<path d="M316 312L316 312 311 311 307 314 308 315 307 320 305 320 308 325 309 324 312 325 313 326 315 329 318 328 317 327 321 325 321 325 321 325 320 322 321 321 320 317 316 314 316 312 316 312Z"  data-id="10" data-name="Delhi"/> 
<path d="M194 829L193 829 193 829 194 829ZM194 828L194 828 194 828 194 828ZM190 815L192 819 192 821 198 827 194 827 195 828 198 830 199 835 199 840 203 843 203 846 205 847 205 847 210 845 212 840 213 836 212 833 214 832 212 827 212 823 212 823 211 818 208 817 206 818 206 818 206 818 202 819 201 818 200 814 196 813 190 815 190 815Z"  data-id="11" data-name="Goa"/> 
<path d="M91 620L90 621 91 621 91 621 91 621 91 621 91 621 91 620 91 620ZM162 621L162 621 163 621 162 621ZM110 616L110 616 110 616 110 616ZM115 614L114 615 115 615 115 614ZM120 612L119 612 119 612 120 612ZM122 611L121 611 121 611 122 611ZM122 611L122 611 122 611 122 611ZM155 609L156 609 156 609 155 609ZM156 607L156 607 157 608 156 607ZM157 607L157 607 157 607 157 607ZM157 606L156 607 157 608 157 606ZM136 601L136 601 136 601 136 601ZM154 599L153 599 153 599 154 599ZM155 596L154 596 155 596 155 596ZM155 596L155 596 155 596 155 596ZM157 595L156 595 157 595 157 595ZM51 587L51 588 51 588 51 587ZM52 586L52 586 52 586 52 586ZM145 588L145 588 146 589 145 588ZM154 588L154 588 154 588 154 588ZM155 588L154 588 154 588 155 588ZM155 587L155 587 155 587 155 587ZM154 587L154 587 154 588 154 587ZM155 587L155 587 155 587 155 587ZM154 587L154 587 154 587 154 587ZM159 586L158 587 159 587 159 586ZM143 583L143 584 143 584 143 583ZM146 575L145 576 146 576 146 575ZM141 573L141 573 141 573 141 573ZM150 565L150 565 150 565 150 565ZM147 565L147 565 147 565 147 565ZM43 557L43 557 43 557 43 557ZM33 556L33 556 33 556 33 556ZM34 556L34 556 34 556 34 556ZM34 555L34 555 34 555 34 555ZM39 555L38 556 39 556 39 555ZM44 555L44 556 44 555 44 555ZM37 554L37 554 37 554 37 554ZM37 554L37 554 37 554 37 554ZM49 553L50 555 50 555 49 553ZM38 552L39 553 39 552 38 552ZM32 552L30 553 30 554 32 552ZM39 550L39 551 40 551 39 550ZM61 551L61 551 61 551 61 551ZM42 550L41 550 42 550 42 550ZM61 550L61 550 61 550 61 550ZM60 550L59 551 60 551 60 550ZM64 550L63 550 63 550 64 550ZM63 550L63 550 63 550 63 550ZM64 550L63 550 64 550 64 550ZM64 549L64 549 64 549 64 549ZM69 549L69 549 69 549 69 549ZM63 548L61 549 61 550 63 548ZM69 548L69 548 69 548 69 548ZM72 545L71 545 72 545 72 545ZM72 544L72 544 72 544 72 544ZM50 541L50 541 51 542 50 541ZM50 541L50 541 50 541 50 541ZM79 533L79 534 79 534 79 533ZM79 531L78 532 78 532 79 531ZM80 531L80 531 79 532 80 531ZM15 522L15 522 15 522 15 522ZM14 521L14 521 14 521 14 521ZM16 521L16 521 16 521 16 521ZM15 520L15 520 15 520 15 520ZM18 519L18 519 18 519 18 519ZM13 519L12 521 13 521 13 519ZM16 519L16 519 16 519 16 519ZM16 519L16 519 16 519 16 519ZM14 519L15 519 15 519 14 519ZM16 519L16 519 16 519 16 519ZM15 519L15 519 15 519 15 519ZM12 518L12 518 12 518 12 518ZM13 518L13 518 13 518 13 518ZM11 518L11 519 12 519 11 518ZM13 518L13 518 13 518 13 518ZM16 517L16 518 16 518 16 517ZM10 517L10 517 10 517 10 517ZM14 517L14 517 14 517 14 517ZM14 517L14 517 14 517 14 517ZM14 517L14 517 15 517 14 517ZM12 516L12 516 12 516 12 516ZM11 516L11 516 11 516 11 516ZM11 516L11 516 11 516 11 516ZM12 516L13 516 12 516 12 516ZM14 516L14 516 14 516 14 516ZM13 515L13 515 13 515 13 515ZM12 515L12 516 12 516 12 515ZM10 515L10 515 10 515 10 515ZM10 515L10 515 10 515 10 515ZM8 515L8 515 8 515 8 515ZM8 515L8 515 8 515 8 515ZM8 514L8 515 8 515 8 514ZM8 514L8 514 8 514 8 514ZM8 514L8 514 8 514 8 514ZM11 514L11 514 11 514 11 514ZM12 514L12 514 12 514 12 514ZM11 514L11 514 11 514 11 514ZM11 514L11 514 11 514 11 514ZM11 513L11 514 11 514 11 513ZM11 512L11 513 11 513 11 512ZM10 512L10 513 11 513 10 512ZM11 512L11 512 12 512 11 512ZM11 512L11 512 11 512 11 512ZM10 512L10 512 10 512 10 512ZM9 511L9 512 9 512 9 511ZM11 511L10 512 11 512 11 511ZM10 511L10 511 10 511 10 511ZM10 510L10 511 10 511 10 510ZM10 510L10 510 10 510 10 510ZM1 508L1 508 1 508 1 508ZM11 507L11 508 11 508 11 507ZM10 507L9 507 9 508 10 507ZM11 507L10 508 11 507 11 507ZM11 503L11 503 11 503 11 503ZM10 503L10 503 10 503 10 503ZM11 502L10 503 11 503 11 502ZM11 502L11 502 11 502 11 502ZM2 500L2 501 2 501 2 500ZM7 500L6 500 6 501 7 500ZM7 500L4 505 2 506 1 507 2 507 4 506 6 507 8 505 9 501 7 500ZM16 500L15 500 15 500 16 500ZM15 500L15 500 15 500 15 500ZM5 499L3 503 5 501 5 499ZM12 499L9 502 12 501 12 499ZM19 498L19 498 19 498 19 498ZM8 497L6 500 9 500 9 498 8 497ZM3 497L3 498 3 498 3 497ZM10 495L7 496 7 498 10 495ZM13 495L12 498 12 498 13 495ZM13 494L13 495 13 495 13 494ZM12 493L9 498 10 498 13 495 12 493ZM10 492L7 495 4 495 3 498 2 499 1 502 3 503 4 500 6 498 7 496 9 495 10 492ZM104 470L101 471 101 475 101 478 105 479 105 480 103 482 101 482 96 484 95 486 91 487 86 486 86 479 84 479 74 482 64 488 56 487 54 486 52 484 45 483 33 483 31 484 28 483 27 485 25 485 24 481 22 482 21 491 21 493 13 500 13 500 18 498 18 500 15 503 13 504 11 510 13 515 17 519 15 522 16 525 19 527 29 534 35 538 39 538 46 540 52 542 54 539 63 537 64 537 69 535 72 534 76 536 77 535 79 531 80 530 78 536 77 537 74 542 72 543 71 546 68 550 59 552 56 554 56 555 53 554 52 555 50 556 49 557 45 554 44 558 38 559 37 560 34 560 34 554 29 555 30 552 25 557 25 561 32 570 36 574 46 584 51 588 51 587 48 584 51 584 53 586 51 589 63 604 69 610 80 618 84 619 84 619 85 616 87 611 88 612 91 611 92 612 92 618 91 620 91 620 92 621 91 621 91 621 92 621 92 621 92 622 92 622 92 622 92 622 92 621 94 620 95 621 95 621 95 620 101 620 102 619 115 613 116 613 125 609 126 608 132 606 136 603 137 599 141 594 142 589 144 587 143 583 142 577 140 572 141 572 143 574 144 569 145 568 146 568 147 567 146 564 148 566 148 562 151 564 151 566 153 563 153 564 157 563 160 565 163 563 165 564 162 564 161 566 159 566 155 565 151 573 151 577 153 580 152 586 154 586 161 586 161 587 155 588 154 590 157 595 155 597 154 602 155 609 156 606 158 607 159 614 161 616 162 619 164 622 163 622 164 629 163 632 163 632 162 634 163 635 161 636 161 636 160 637 159 639 158 645 158 645 160 645 162 643 166 642 166 642 167 642 165 640 169 639 171 637 172 639 174 638 170 642 171 644 173 643 175 646 175 646 175 646 178 643 183 643 183 635 185 631 185 629 182 626 187 625 190 626 191 628 193 629 198 627 197 624 202 622 201 616 200 615 201 614 195 611 195 608 191 608 196 606 199 602 200 602 202 601 203 597 206 596 206 594 211 595 216 593 215 591 212 592 211 591 207 591 204 592 199 593 197 588 201 587 201 585 198 581 202 579 206 577 209 576 210 576 210 576 208 574 210 571 209 570 207 565 207 564 209 561 211 562 213 560 214 559 212 557 212 556 208 557 208 555 206 553 209 553 210 554 215 549 218 550 218 548 222 541 217 537 216 534 216 533 216 533 215 532 214 529 212 529 209 528 209 525 204 522 202 523 201 522 199 518 195 520 195 518 192 518 193 512 190 510 188 512 188 509 185 506 183 506 183 503 185 500 184 495 182 493 182 495 179 496 178 494 178 493 174 490 174 488 176 485 177 485 179 483 176 484 174 481 174 479 171 478 169 482 170 483 167 484 162 483 161 482 160 479 159 479 155 477 152 481 151 478 147 476 145 475 144 474 147 473 141 473 138 469 134 472 133 471 128 470 123 471 122 470 120 470 114 472 113 471 105 469 104 470Z"  data-id="12" data-name="Gujarat"/> 
<path d="M301 234L301 234 304 238 303 239 303 239 303 240 303 241 304 241 303 242 303 242 303 243 304 244 305 250 306 254 305 255 303 252 303 253 300 252 299 253 300 255 296 258 296 260 297 260 297 265 291 265 290 263 289 264 287 263 286 264 282 263 283 265 283 271 282 271 284 273 275 279 271 277 268 275 266 276 263 278 256 277 252 283 252 285 247 281 250 278 248 275 246 276 245 272 244 273 242 274 238 270 237 270 232 269 230 272 228 271 226 270 226 270 226 271 227 273 225 275 224 278 228 277 228 280 228 289 226 290 229 293 230 292 234 293 236 291 240 293 242 296 243 296 244 297 246 298 248 296 249 298 253 295 253 298 255 297 255 304 256 304 257 306 259 306 259 307 258 309 259 313 261 321 263 322 263 323 267 326 268 329 273 331 273 332 276 334 276 335 278 339 277 338 274 341 276 342 275 344 273 348 276 350 279 350 282 352 282 351 281 344 282 343 284 342 287 344 288 342 286 338 289 339 292 339 292 341 295 345 298 344 298 341 301 340 303 337 305 336 308 339 307 344 307 350 307 351 306 355 307 358 309 357 310 354 312 355 311 352 312 352 314 353 319 352 319 352 319 352 320 351 326 347 328 347 326 341 328 338 328 335 326 334 326 330 321 325 321 325 321 325 317 327 318 328 315 329 313 326 312 325 309 324 308 325 305 320 307 320 308 315 307 314 311 311 316 312 316 312 316 311 317 306 314 302 314 298 314 297 313 292 313 287 313 287 312 284 314 281 314 277 315 272 318 267 323 264 328 257 329 254 328 254 328 254 326 251 324 253 313 247 314 244 312 240 309 240 306 234 304 235 302 233 301 234Z"  data-id="13" data-name="Haryana"/> 
<path d="M272 170L271 173 274 176 267 182 266 182 263 185 264 185 263 188 269 193 272 194 275 199 274 200 276 207 279 210 281 215 281 219 283 218 288 214 290 218 295 220 296 223 295 223 296 227 296 230 301 233 301 234 302 233 304 235 306 234 309 240 312 240 314 244 313 247 324 253 326 251 328 254 328 254 328 253 328 253 328 253 328 253 328 253 332 251 336 249 336 247 333 240 333 238 334 235 335 235 333 232 336 229 336 228 339 224 342 224 343 223 354 219 357 220 358 222 360 222 361 221 363 222 369 222 371 225 375 225 372 220 372 220 370 216 367 214 368 212 366 211 366 209 369 206 366 203 365 200 367 192 366 191 363 188 361 187 361 184 359 182 356 182 356 181 357 178 358 176 355 174 356 173 354 172 351 174 351 170 353 167 353 163 351 164 348 167 347 166 345 167 344 167 342 168 338 165 338 163 333 159 334 157 330 155 330 156 324 159 321 159 320 161 314 157 313 157 312 155 306 153 302 147 303 145 300 145 299 147 297 148 295 147 287 148 285 150 284 152 279 154 277 157 274 159 269 157 269 159 273 164 272 166 273 167 272 170 272 170Z"  data-id="14" data-name="Himachal Pradesh"/> 
<path d="M254 0L246 4 243 4 241 5 237 1 231 0 230 3 226 2 222 4 222 5 218 6 214 9 209 7 202 6 205 9 205 9 208 12 207 14 205 14 200 14 194 12 190 14 183 15 183 19 180 23 177 24 176 26 174 29 170 31 168 30 166 34 165 37 167 39 165 43 168 46 170 47 173 46 175 45 178 46 182 46 184 46 184 51 192 56 196 56 199 57 202 57 205 58 205 61 203 63 202 66 205 69 208 69 216 73 213 81 211 84 204 86 201 91 201 91 199 94 194 94 192 101 196 107 197 117 198 121 197 123 199 134 198 137 199 143 199 149 202 151 204 154 209 153 215 157 221 162 226 162 227 163 231 163 232 163 232 173 233 174 239 174 240 174 245 174 248 176 254 180 261 180 271 170 273 164 272 162 269 159 271 157 274 159 276 158 281 153 285 152 285 150 289 146 296 147 299 147 301 144 303 144 302 145 306 153 316 158 320 161 321 159 324 159 327 157 328 156 331 154 334 156 335 159 336 160 339 162 339 165 342 168 345 167 347 165 348 166 352 165 353 169 352 171 352 175 355 170 359 168 360 168 362 166 366 165 366 166 366 170 367 172 373 178 375 176 377 177 382 172 384 169 385 169 387 171 390 168 394 162 386 154 385 150 386 147 387 144 381 142 373 141 370 137 369 132 370 129 376 129 373 127 373 124 369 116 372 114 376 115 377 113 385 115 388 108 391 107 390 102 388 98 391 97 396 97 398 96 397 92 399 90 402 90 406 88 408 80 409 72 411 67 412 66 413 55 412 54 407 53 403 47 401 46 400 47 397 47 388 44 385 44 382 40 378 41 378 45 373 46 369 44 367 45 361 46 357 49 353 49 351 50 348 51 348 53 346 53 344 57 338 55 337 57 338 59 336 60 331 58 328 60 323 60 319 59 320 58 323 57 320 52 317 50 314 50 311 48 307 48 299 42 301 39 300 38 295 33 294 33 290 31 287 27 282 26 278 22 269 19 266 16 263 11 259 10 257 6 254 0Z" data-id="15" data-name="Jammu &amp; Kashmir"/>
<path d="M538 472L538 472 534 475 537 478 535 480 534 485 533 488 533 489 533 489 536 489 537 491 539 491 541 496 546 499 548 503 547 504 555 506 557 506 558 507 558 511 557 514 557 516 561 517 559 524 561 526 563 527 564 530 565 529 567 531 572 530 572 535 569 539 568 539 568 542 566 543 560 546 560 548 560 548 560 548 563 550 567 554 570 555 586 551 586 550 591 551 597 548 598 553 600 555 598 557 597 563 600 564 603 564 604 566 607 561 612 561 617 563 619 563 620 564 625 561 623 563 623 566 624 566 628 566 630 564 631 561 632 558 630 555 632 553 629 548 629 546 632 543 636 547 640 547 644 551 646 552 649 551 654 554 654 555 657 555 657 555 657 555 660 554 659 553 662 553 660 551 659 547 657 545 658 545 658 543 657 541 653 541 653 539 649 536 648 537 644 534 646 528 648 528 644 526 643 527 640 526 637 527 634 524 631 522 630 521 626 522 623 519 624 513 625 513 623 510 623 509 630 507 628 505 633 505 633 508 636 508 639 509 641 505 644 502 648 500 652 498 655 498 655 494 659 491 667 494 672 490 670 486 671 485 673 486 674 485 678 486 677 485 679 483 679 481 682 480 682 479 685 479 685 478 684 476 687 473 688 469 688 464 690 463 691 461 691 457 689 455 690 452 693 450 690 446 685 442 685 438 686 438 685 437 682 434 677 434 675 437 674 439 669 439 669 444 668 443 665 445 664 446 665 453 662 454 663 458 662 463 658 462 657 464 657 465 654 465 653 464 649 465 647 464 643 467 643 471 642 473 640 472 635 465 631 465 629 464 629 461 627 458 625 459 622 460 618 458 615 457 613 464 614 466 610 466 608 469 608 468 604 469 596 472 597 473 593 475 593 474 590 476 587 476 584 470 579 475 574 476 574 479 567 476 566 473 566 470 560 471 560 473 557 468 556 468 551 471 546 473 539 472 538 472Z"  data-id="16" data-name="Jharkhand"/> 
<path d="M228 909L228 909 228 909 228 909ZM228 909L228 909 228 909 228 909ZM227 907L227 907 227 907 227 907ZM226 906L227 907 227 907 226 906ZM226 905L226 905 226 905 226 905ZM219 881L219 881 219 881 219 881ZM213 880L213 881 213 881 213 880ZM216 869L216 869 216 869 216 869ZM215 860L215 860 215 860 215 860ZM210 854L210 854 210 854 210 854ZM207 853L207 853 207 853 207 853ZM206 852L206 852 206 852 206 852ZM204 850L203 850 204 850 204 850ZM204 850L204 850 204 850 204 850ZM205 849L205 849 205 849 205 849ZM205 849L205 849 205 849 205 849ZM205 847L205 848 205 848 205 847ZM206 818L206 818 208 817 211 818 212 823 212 823 212 827 214 832 212 833 213 836 212 840 210 845 205 847 205 847 206 849 205 851 209 853 211 854 212 857 213 861 215 861 215 862 218 873 219 876 220 882 222 883 224 887 226 896 227 902 227 906 229 915 230 919 233 929 233 929 237 928 238 930 244 932 244 934 246 934 249 938 252 940 254 939 253 943 254 947 257 949 259 952 265 956 267 955 269 959 271 961 277 961 280 959 280 964 283 963 284 966 287 967 288 969 291 968 291 971 292 971 292 971 295 970 297 973 302 973 308 973 307 971 309 967 314 966 314 967 317 969 317 967 324 966 326 967 329 967 331 963 331 961 337 960 341 953 341 952 336 951 332 951 331 951 331 948 333 948 336 944 337 940 335 939 335 933 338 932 339 933 343 929 342 926 344 925 347 924 347 926 351 927 350 927 355 928 355 928 359 929 359 929 359 929 360 925 363 922 366 924 366 921 368 921 371 914 372 913 371 909 365 908 364 906 364 901 361 897 359 897 357 898 358 896 353 895 353 893 355 890 354 887 348 886 349 885 349 883 347 885 344 884 343 884 342 888 339 892 339 890 333 892 333 891 330 894 330 889 326 887 325 888 324 887 321 886 318 887 319 890 317 891 316 891 314 890 313 892 312 889 314 884 311 880 312 878 309 875 311 875 314 875 314 879 318 881 325 881 326 885 328 886 328 882 326 881 326 879 327 877 332 876 332 875 329 869 327 870 328 874 327 874 326 871 323 871 323 869 317 870 317 873 311 872 309 868 311 866 312 863 308 863 305 861 304 859 306 851 307 851 308 844 304 841 305 840 308 842 314 842 317 839 318 833 319 833 317 831 314 829 313 825 312 825 314 824 314 819 316 818 317 819 314 815 314 811 315 808 318 807 322 806 331 808 331 801 331 800 331 794 332 794 334 793 332 790 328 791 322 788 324 786 325 786 330 782 328 779 330 778 328 777 330 775 330 766 331 766 329 762 326 760 329 756 328 755 329 752 331 752 331 750 338 747 332 744 328 744 329 739 332 738 332 737 331 736 334 732 334 731 336 730 336 728 332 726 332 725 334 724 334 719 333 717 332 716 332 716 331 716 330 717 325 716 327 714 326 712 323 711 321 712 321 714 317 720 316 720 316 722 315 722 312 721 310 721 311 726 309 731 305 733 303 732 304 735 301 739 300 740 298 737 297 739 296 737 295 737 291 742 288 745 289 746 288 750 289 750 289 752 290 753 290 754 285 752 282 753 280 752 276 753 272 753 272 751 271 751 270 750 268 752 267 751 264 750 262 748 260 752 261 755 263 756 263 759 264 763 264 768 260 766 260 768 256 767 249 768 250 770 247 772 244 771 242 768 238 769 237 768 238 771 236 774 236 775 231 776 228 777 225 782 223 783 222 780 218 782 216 784 216 783 211 785 216 789 214 792 214 793 216 793 218 795 220 795 220 801 218 800 219 804 217 807 217 810 216 809 216 812 213 814 211 813 208 814 206 818 206 818Z"  data-id="17" data-name="Karnataka"/> 
<path d="M293 1053L293 1053 294 1053 293 1053ZM291 1053L290 1053 290 1053 291 1053ZM292 1052L291 1052 292 1053 292 1052ZM292 1052L293 1053 293 1052 292 1052ZM291 1052L290 1053 290 1053 291 1052ZM290 1046L290 1046 290 1046 290 1046ZM290 1044L290 1045 290 1044 290 1044ZM288 1042L288 1042 288 1042 288 1042ZM290 1042L290 1042 290 1042 290 1042ZM290 1042L290 1042 290 1042 290 1042ZM290 1041L290 1041 290 1041 290 1041ZM290 1041L290 1041 290 1041 290 1041ZM289 1040L289 1041 290 1041 289 1040ZM287 1038L288 1039 288 1039 287 1038ZM286 1035L286 1035 286 1035 286 1035ZM285 1034L285 1034 285 1035 285 1034ZM286 1034L285 1034 286 1034 286 1034ZM286 1034L286 1034 285 1034 286 1034ZM285 1031L285 1031 285 1031 285 1031ZM270 991L269 992 269 992 270 991ZM249 960L249 960 249 960 249 960ZM249 959L249 960 249 960 249 959ZM249 959L249 959 249 959 249 959ZM249 957L249 957 249 957 249 957ZM245 954L245 954 245 954 245 954ZM243 951L243 951 243 951 243 951ZM243 950L244 954 244 954 243 950ZM233 929L239 942 242 948 245 954 246 958 247 957 247 957 248 954 251 953 253 953 250 954 250 956 250 956 249 959 251 961 250 960 250 962 253 964 259 971 262 979 264 980 270 995 272 1005 280 1023 284 1034 285 1035 283 1030 286 1032 285 1034 288 1039 290 1040 290 1046 292 1049 292 1051 294 1053 290 1053 290 1050 290 1047 290 1047 288 1040 286 1040 286 1041 288 1055 289 1059 293 1068 296 1077 299 1078 309 1092 315 1098 317 1100 317 1100 320 1099 321 1093 324 1091 320 1084 323 1080 321 1077 319 1073 321 1071 323 1066 323 1066 324 1062 326 1058 329 1054 325 1050 324 1051 319 1050 321 1047 321 1042 321 1040 323 1034 321 1031 323 1030 324 1027 322 1023 322 1022 319 1022 315 1024 315 1025 312 1027 309 1026 307 1024 307 1021 307 1020 307 1015 306 1011 308 1011 308 1009 310 1005 307 1002 303 1001 301 997 303 995 304 996 304 992 302 991 303 989 302 988 299 989 293 988 294 987 296 984 296 983 291 981 286 979 285 979 284 975 289 974 292 972 292 971 291 971 291 968 288 969 287 967 284 966 283 963 280 964 280 959 277 961 271 961 269 959 267 955 265 956 259 952 257 949 254 947 253 943 254 939 252 940 249 938 246 934 244 934 244 932 238 930 237 928 233 929 233 929Z"  data-id="18" data-name="Kerala"/> 
<path d="M162 1100L162 1100 162 1100 162 1100ZM165 1098L163 1100 162 1100 165 1098ZM135 1032L135 1032 135 1032 135 1032ZM186 1032L186 1032 186 1032 186 1032ZM186 1032L186 1032 186 1032 186 1032ZM187 1031L187 1032 187 1031 187 1031ZM187 1029L187 1029 187 1029 187 1029ZM131 1003L131 1003 131 1003 131 1003ZM131 1002L131 1002 131 1002 131 1002ZM131 1002L132 1000 132 1000 131 1002ZM136 998L136 998 135 998 136 998ZM137 997L137 997 137 997 137 997ZM129 987L129 987 129 987 129 987ZM129 987L129 987 129 987 129 987ZM155 986L154 988 154 988 155 986ZM163 977L163 977 163 977 163 977ZM163 977L163 977 163 977 163 977ZM152 969L152 970 152 969 152 969Z"  data-id="19" data-name="Lakshadweep"/> 
<path d="M352 389L351 389 350 389 351 390 349 390 348 394 344 395 341 395 338 399 336 400 335 402 332 402 328 405 325 406 317 412 313 414 311 414 310 416 307 417 304 423 301 425 298 425 298 426 294 428 294 431 293 432 294 439 299 446 303 447 307 447 308 448 313 447 317 447 318 445 321 443 323 445 322 447 321 456 317 455 312 457 310 456 309 457 306 458 306 461 308 463 307 466 304 466 305 469 309 468 313 473 313 476 311 479 309 480 305 477 305 479 305 485 309 490 307 493 304 493 300 491 300 489 298 487 297 488 295 491 287 488 283 489 282 485 281 487 280 490 280 494 274 497 275 500 267 503 266 503 265 505 261 505 260 503 257 500 259 496 261 498 263 498 265 499 268 497 268 493 267 492 268 489 270 488 266 484 268 480 272 481 272 478 273 478 270 472 270 472 268 468 267 468 263 471 259 470 257 471 248 470 247 469 248 466 250 466 248 464 252 466 255 465 254 464 250 464 251 460 252 462 253 458 250 458 245 460 245 464 242 465 237 463 236 460 235 463 236 466 237 467 241 467 241 469 238 472 234 469 233 471 234 472 232 475 231 478 234 479 236 480 232 487 236 487 237 489 237 491 239 494 240 498 238 500 237 505 238 507 237 512 233 515 232 515 225 520 225 525 225 524 229 525 231 527 227 530 224 531 223 532 219 532 217 533 216 533 216 534 217 537 222 541 218 548 218 550 215 549 210 554 209 553 206 553 208 555 208 557 212 556 212 557 214 559 213 560 211 562 209 561 207 564 207 565 209 570 210 571 208 574 210 576 210 576 210 576 211 577 215 577 218 573 220 573 220 575 222 576 223 578 223 585 232 589 233 589 242 591 245 595 248 597 251 598 257 598 264 598 274 598 281 602 282 606 280 606 282 609 285 609 286 610 289 610 292 607 293 605 297 605 299 602 298 600 302 597 304 595 303 593 304 590 308 590 313 586 315 585 322 585 321 583 327 583 330 585 333 591 327 592 329 597 333 598 335 598 337 599 340 597 340 597 343 598 350 595 353 593 354 591 357 589 359 590 362 590 363 593 366 592 369 594 373 594 381 593 380 590 382 588 383 589 386 589 388 587 391 587 391 585 398 585 400 586 401 588 404 591 409 588 413 591 421 590 423 588 428 587 430 589 435 595 438 596 441 599 442 598 442 598 442 598 445 593 444 588 445 582 446 582 448 578 448 576 451 568 452 568 454 563 457 563 457 556 460 553 462 554 463 553 467 554 471 551 474 551 476 548 480 546 481 542 480 538 486 534 485 530 490 529 492 529 493 527 493 524 494 520 488 518 487 517 486 514 484 512 479 512 478 511 473 514 472 510 476 506 475 504 473 499 475 498 479 502 480 502 484 500 487 500 493 501 494 500 495 501 500 501 506 500 509 498 515 495 515 495 515 495 513 491 510 489 512 487 513 480 511 479 512 474 511 474 514 472 510 469 510 468 501 467 500 468 500 471 498 471 496 470 496 468 494 467 494 464 492 463 484 462 482 461 481 456 477 455 476 454 471 454 471 451 472 450 467 451 467 454 464 452 462 450 460 450 459 454 457 459 456 458 453 460 451 459 443 459 446 454 446 450 444 450 444 452 440 452 442 454 439 455 437 452 436 454 434 455 432 453 432 456 429 455 429 457 425 457 427 453 430 451 429 449 426 446 425 442 422 442 420 444 415 445 413 448 411 448 410 454 407 453 400 452 397 455 394 454 394 451 397 447 393 448 391 445 390 447 392 448 390 451 391 453 386 453 383 451 381 453 382 450 380 448 379 449 380 451 378 450 376 452 376 450 379 447 378 445 376 445 374 447 376 444 378 445 379 444 377 438 375 438 374 441 370 441 372 445 366 443 365 444 364 445 366 453 367 455 368 457 368 461 370 463 372 464 373 469 372 472 372 474 376 472 380 478 377 478 380 480 380 483 374 490 372 488 364 482 361 486 357 484 359 483 355 480 354 477 355 474 353 467 351 465 351 464 357 459 357 456 361 453 356 447 357 445 356 445 358 441 360 441 360 438 366 436 367 437 373 435 373 428 374 426 375 424 379 417 378 415 380 414 383 408 382 405 384 403 381 403 379 398 379 396 377 394 374 393 372 391 369 390 365 392 358 389 357 387 352 389 352 389Z"  data-id="20" data-name="Madhya Pradesh"/> 
<path d="M182 808L182 808 182 808 182 808ZM182 808L182 808 182 808 182 808ZM182 802L182 803 182 803 182 802ZM181 800L181 800 181 800 181 800ZM169 734L169 734 169 734 169 734ZM165 716L165 716 165 716 165 716ZM169 715L169 715 169 715 169 715ZM160 700L160 700 160 700 160 700ZM161 700L161 700 161 700 161 700ZM163 690L163 690 163 690 163 690ZM157 671L157 671 157 671 157 671ZM210 576L209 576 206 577 202 579 198 581 201 585 201 587 197 588 199 593 204 592 207 591 211 591 212 592 215 591 216 593 211 595 206 594 206 596 203 597 202 601 200 602 199 602 196 606 191 608 195 608 195 611 201 614 200 615 201 616 202 622 197 624 198 627 193 629 191 628 190 626 187 625 182 626 185 629 185 631 183 635 183 643 178 643 175 646 175 646 175 646 174 648 170 647 170 648 167 646 167 643 166 642 166 642 162 643 160 645 158 645 158 645 158 652 156 652 156 653 156 659 157 662 157 666 159 669 158 671 160 676 159 680 161 685 160 692 161 689 167 687 166 696 162 696 162 702 164 706 163 708 163 713 165 716 167 717 169 716 169 718 165 717 164 718 165 720 167 729 168 730 170 735 173 748 174 754 173 755 176 763 175 766 176 766 176 772 177 773 177 777 178 780 177 781 178 783 179 790 181 796 182 802 183 803 188 810 190 815 190 815 196 813 200 814 201 818 202 819 206 818 206 818 206 818 208 814 211 813 213 814 216 812 216 809 217 810 217 807 219 804 218 800 220 801 220 795 218 795 216 793 214 793 214 792 216 789 211 785 216 783 216 784 218 782 222 780 223 783 225 782 228 777 231 776 236 775 236 774 238 771 237 768 238 769 242 768 244 771 247 772 250 770 249 768 256 767 260 768 260 766 264 768 264 763 263 759 263 756 261 755 260 752 262 748 264 750 267 751 268 752 270 750 271 751 272 751 272 753 276 753 280 752 282 753 285 752 290 754 290 753 289 752 289 750 288 750 289 746 288 745 291 742 295 737 296 737 297 739 298 737 300 740 301 739 304 735 303 732 305 733 309 731 311 726 310 721 312 721 315 722 316 722 316 720 317 720 321 714 321 712 323 711 326 712 327 714 325 716 330 717 331 716 332 716 332 716 332 716 331 711 333 711 334 709 333 708 339 706 339 702 341 700 345 696 343 693 343 691 340 690 340 687 342 686 344 678 343 678 346 676 349 678 350 680 353 680 355 673 358 672 358 668 359 667 358 663 361 661 361 659 359 654 360 654 363 657 366 658 367 657 370 658 374 659 378 660 379 664 383 664 384 666 383 668 386 668 391 671 392 671 393 666 393 666 400 668 404 667 404 668 407 667 411 665 412 665 417 669 419 672 419 674 418 679 419 682 416 684 418 689 419 694 418 696 422 698 425 700 431 699 431 699 431 698 432 696 434 694 431 690 433 684 432 683 441 672 443 676 445 675 446 677 451 674 449 672 453 669 450 666 446 664 442 660 442 659 439 656 436 657 438 654 435 652 438 652 440 649 439 645 434 643 435 642 434 640 437 639 438 639 442 637 441 634 442 628 441 626 438 627 437 626 438 624 440 623 438 613 437 614 434 611 435 610 435 606 435 604 439 603 443 599 442 598 442 598 442 598 441 599 438 596 435 595 430 589 428 587 423 588 421 590 413 591 409 588 404 591 401 588 400 586 398 585 391 585 391 587 388 587 386 589 383 589 382 588 380 590 381 593 373 594 369 594 366 592 363 593 362 590 359 590 357 589 354 591 353 593 350 595 343 598 340 597 340 597 337 599 335 598 333 598 329 597 327 592 333 591 330 585 327 583 321 583 322 585 315 585 313 586 308 590 304 590 303 593 304 595 302 597 298 600 299 602 297 605 293 605 292 607 289 610 286 610 285 609 282 609 280 606 282 606 281 602 274 598 264 598 257 598 251 598 248 597 245 595 242 591 233 589 232 589 223 585 223 578 222 576 220 575 220 573 218 573 215 577 211 577 210 576 210 576Z"  data-id="21" data-name="Maharashtra"/> 
<path d="M881 418L881 419 877 424 878 425 875 432 874 438 871 441 869 454 869 455 870 455 870 460 870 466 874 467 876 466 876 468 878 467 882 467 882 467 883 465 885 466 887 470 888 471 890 469 892 469 892 468 897 468 899 470 906 469 909 471 910 473 911 472 912 468 913 464 915 453 916 450 917 450 917 447 921 441 921 438 923 435 923 434 924 431 925 428 925 426 926 425 925 421 920 419 920 415 922 408 922 408 918 407 917 404 918 400 912 404 912 406 909 408 906 409 905 407 901 408 898 406 896 407 894 407 890 409 892 411 888 416 886 422 882 421 881 419 881 418Z"  data-id="22" data-name="Manipur"/>
<path d="M756 420L756 420 756 420 756 420 756 420 756 423 756 423 756 423 755 427 756 430 761 429 766 432 768 432 774 432 778 434 780 433 785 432 789 432 793 432 799 430 805 430 812 431 818 429 818 431 825 429 835 428 838 429 846 432 846 432 848 430 850 429 849 428 852 428 855 425 858 424 857 423 857 420 851 417 849 414 852 411 851 410 849 411 848 410 845 407 844 407 843 405 837 407 835 408 834 404 835 400 833 398 836 395 837 393 833 393 831 394 827 396 824 396 823 393 818 395 818 396 815 398 815 397 813 397 810 403 807 404 801 409 801 405 795 406 795 404 789 402 781 403 780 403 777 405 778 403 776 401 772 401 769 403 766 404 763 404 759 409 758 411 756 413 761 418 760 418 756 420 756 420Z"  data-id="23" data-name="Meghalaya"/> 
<path d="M845 463L845 463 847 467 847 473 846 480 846 483 846 483 848 487 850 494 851 496 853 501 852 502 853 510 854 514 856 515 858 520 860 525 860 527 861 529 864 541 864 543 865 549 868 548 868 543 873 545 876 548 877 546 879 548 879 543 881 543 880 540 881 539 884 540 885 537 882 529 881 525 881 524 880 521 880 514 881 511 879 508 881 506 884 508 886 507 888 502 887 502 886 494 887 493 887 488 887 487 887 481 886 479 884 471 883 470 882 467 882 467 878 467 876 468 876 466 874 467 870 466 870 460 870 455 869 455 869 455 863 455 860 451 858 458 857 458 855 462 854 463 852 466 850 465 849 463 845 463 845 463Z"  data-id="24" data-name="Mizoram"/> 
<path d="M931 346L930 347 928 349 922 351 919 356 915 359 911 361 911 361 907 365 906 369 904 371 903 370 903 367 900 373 900 376 899 376 895 384 895 387 894 391 896 393 893 396 890 397 889 397 889 394 888 392 886 395 886 397 884 399 879 406 878 406 875 410 877 412 880 414 881 418 881 418 881 419 882 421 886 422 888 416 892 411 890 409 894 407 896 407 898 406 901 408 905 407 906 409 909 408 912 406 912 404 918 400 917 404 918 407 922 408 922 408 925 407 929 403 928 403 933 394 931 391 931 389 935 385 933 381 932 371 930 369 931 366 932 362 934 359 934 359 934 355 932 352 932 348 931 346 931 346Z"  data-id="25" data-name="Nagaland"/> 
<path d="M594 678L594 679 594 679 594 678ZM593 678L593 679 593 679 593 678ZM592 679L593 680 593 680 594 678 594 678 592 679 592 679ZM645 645L645 645 645 645 645 645ZM650 643L649 643 649 643 650 643ZM650 642L651 642 650 642 650 642ZM649 642L649 642 650 642 649 642ZM648 641L648 642 648 641 648 641ZM648 642L648 641 648 641 648 642ZM647 641L647 641 647 641 647 641ZM645 640L645 641 645 641 645 640ZM646 640L646 641 646 641 646 640ZM648 640L648 640 648 640 648 640ZM647 640L648 641 648 641 647 640ZM646 640L646 640 646 640 646 640ZM647 640L647 640 647 640 647 640ZM647 640L647 640 647 640 647 640ZM651 640L651 640 651 640 651 640ZM647 639L647 640 647 640 647 639ZM646 639L645 640 646 640 646 639ZM653 635L654 635 654 635 653 635ZM654 634L653 634 654 635 654 634ZM664 626L664 625 664 625 664 626ZM664 625L664 624 664 624 664 625ZM664 623L664 623 664 623 664 623ZM664 621L664 622 664 623 664 621ZM663 614L663 614 663 614 663 614ZM671 613L671 612 671 612 671 613ZM673 612L673 611 673 611 673 612ZM666 611L663 614 669 613 670 610 666 611ZM666 610L666 610 666 610 666 610ZM665 610L666 610 665 610 665 610ZM670 610L669 610 670 610 670 610ZM671 609L670 608 670 609 671 609ZM673 581L673 581 673 581 673 581ZM560 548L559 548 560 554 556 556 551 559 548 560 547 561 546 564 546 566 544 567 545 572 546 572 546 575 544 577 543 577 543 579 541 582 543 583 539 584 538 588 539 591 540 595 538 594 536 595 534 598 533 603 530 604 525 602 521 602 519 603 515 603 513 603 512 609 507 615 503 613 503 615 504 622 504 625 507 632 506 634 507 635 507 639 506 641 506 645 514 648 517 647 518 649 518 651 514 656 514 652 509 651 505 654 502 649 501 648 499 648 494 646 493 647 491 645 489 645 487 647 486 650 492 656 494 658 494 665 494 667 496 667 496 668 499 670 498 672 500 680 501 682 502 689 500 690 500 694 497 696 494 698 490 701 492 702 490 703 485 712 479 714 477 716 477 719 476 724 475 727 474 730 473 730 472 732 472 733 473 733 476 733 481 732 482 730 487 728 497 722 501 723 504 725 504 722 507 723 508 719 506 717 507 712 507 708 511 703 514 707 514 709 522 711 523 707 526 708 526 709 529 710 533 708 531 707 534 703 532 699 534 694 540 693 544 691 542 686 542 688 541 685 543 684 546 687 546 684 547 682 548 684 549 684 550 681 551 682 551 679 558 684 559 686 561 690 565 691 567 691 569 693 572 692 578 691 579 689 579 688 582 686 581 683 583 684 586 680 587 682 589 680 588 678 592 679 592 679 593 677 593 678 597 674 611 661 615 658 625 652 629 651 642 647 648 643 648 642 645 639 648 640 649 642 650 642 651 639 652 638 655 633 661 629 664 626 662 625 661 623 663 620 672 613 665 615 664 611 666 610 669 610 666 602 664 599 663 596 664 591 668 586 670 583 676 580 683 579 685 577 685 577 683 571 681 571 677 570 676 564 673 564 671 568 668 567 668 563 668 561 665 560 661 560 657 556 657 555 657 555 654 555 654 554 649 551 646 552 644 551 640 547 636 547 632 543 629 546 629 548 632 553 630 555 632 558 631 561 630 564 628 566 624 566 623 566 623 563 625 561 620 564 619 563 617 563 612 561 607 561 604 566 603 564 600 564 597 563 598 557 600 555 598 553 597 548 591 551 586 550 586 551 570 555 567 554 563 550 560 548 560 548Z"  data-id="26" data-name="Odisha"/> 
<path d="M421 1003L421 1002 421 1000 421 996 421 996 417 996 416 998 421 1003 421 1003ZM419 964L419 962 420 959 420 959 419 958 417 960 416 957 415 958 414 956 413 958 414 959 415 962 413 962 416 963 419 964 419 964ZM247 957L249 960 248 958 250 956 250 956 250 954 253 953 251 953 248 954 247 957 247 957ZM506 775L506 775 507 774 507 774 506 774 506 774 506 775 506 775ZM506 775L505 774 505 774 507 774 507 774 507 774 507 774 503 774 506 775 506 775Z"  data-id="27" data-name="Puducherry"/> 
<path d="M271 170L269 174 267 174 266 177 260 179 260 181 258 179 254 180 255 182 251 189 243 191 240 190 237 194 233 194 233 195 229 197 227 202 229 208 231 213 229 215 226 223 227 225 229 227 229 225 231 225 231 228 228 228 227 230 221 235 218 239 219 240 216 241 214 244 212 248 208 249 206 252 208 259 208 261 205 268 205 269 224 270 226 270 226 270 228 271 230 272 232 269 237 270 238 270 242 274 244 273 245 272 246 276 248 275 250 278 247 281 252 285 252 283 256 277 263 278 266 276 268 275 271 277 275 279 284 273 282 271 283 271 283 265 282 263 286 264 287 263 289 264 290 263 291 265 297 265 297 260 296 260 296 258 300 255 299 253 300 252 303 253 303 252 305 255 306 254 305 250 304 244 303 243 303 242 303 242 300 242 299 239 303 239 303 239 303 239 304 238 301 234 301 234 301 233 296 230 296 227 295 223 296 223 295 220 290 218 288 214 283 218 281 219 281 215 279 210 276 207 274 200 275 199 272 194 269 193 263 188 264 185 263 185 266 182 267 182 274 176 271 173 272 170 271 170Z"  data-id="28" data-name="Punjab"/> 
<path d="M207 261L200 266 193 268 188 270 185 282 182 288 178 296 174 300 172 305 164 308 157 313 154 314 150 318 146 330 137 339 136 344 129 347 126 348 118 348 114 349 102 354 97 353 94 348 93 344 89 340 84 341 81 344 78 346 75 350 71 358 68 361 64 365 59 369 55 373 53 378 52 388 53 389 64 395 70 395 72 395 75 400 74 408 74 410 71 416 71 420 74 425 77 428 77 429 81 431 87 430 90 430 91 431 91 437 90 442 97 451 98 452 99 460 104 469 105 469 113 471 114 472 120 470 122 470 123 471 128 470 133 471 134 472 138 469 141 473 147 473 144 474 145 475 147 476 151 478 152 481 155 477 159 479 160 479 161 482 162 483 167 484 170 483 169 482 171 478 174 479 174 481 176 484 179 483 177 485 176 485 174 488 174 490 178 493 178 494 179 496 182 495 182 493 184 495 185 500 183 503 183 506 185 506 188 509 188 512 190 510 193 512 192 518 195 518 195 520 199 518 201 522 202 523 204 522 209 525 209 528 212 529 214 529 215 532 216 533 216 533 217 533 219 532 223 532 224 531 227 530 231 527 229 525 225 524 225 525 225 520 232 515 233 515 237 512 238 507 237 505 238 500 240 498 239 494 237 491 237 489 236 487 232 487 236 480 234 479 231 478 232 475 234 472 233 471 234 469 238 472 241 469 241 467 237 467 236 466 235 463 236 460 237 463 242 465 245 464 245 460 250 458 253 458 252 462 251 460 250 464 254 464 255 465 252 466 248 464 250 466 248 466 247 469 248 470 257 471 259 470 263 471 267 468 268 468 270 472 270 472 273 478 272 478 272 481 268 480 266 484 270 488 268 489 267 492 268 493 268 497 265 499 263 498 261 498 259 496 257 500 260 503 261 505 265 505 266 503 267 503 275 500 274 497 280 494 280 490 281 487 282 485 283 489 287 488 295 491 297 488 298 487 300 489 300 491 304 493 307 493 309 490 305 485 305 479 305 477 309 480 311 479 313 476 313 473 309 468 305 469 304 466 307 466 308 463 306 461 306 458 309 457 310 456 312 457 317 455 321 456 322 447 323 445 321 443 318 445 317 447 313 447 308 448 307 447 303 447 299 446 294 439 293 432 294 431 294 428 298 426 298 425 301 425 304 423 307 417 310 416 311 414 313 414 317 412 325 406 328 405 332 402 335 402 336 400 338 399 341 395 344 395 348 394 349 390 351 390 350 389 351 389 352 389 352 389 353 385 351 385 348 386 336 385 333 388 329 390 327 389 327 391 324 389 328 386 330 385 334 382 333 381 332 382 329 381 329 380 328 380 330 378 331 376 332 376 332 374 331 373 331 370 330 370 325 367 323 363 322 363 321 359 322 358 319 352 319 352 319 352 314 353 312 352 311 352 312 355 310 354 309 357 307 358 306 355 307 351 307 350 307 344 308 339 305 336 303 337 301 340 298 341 298 344 295 345 292 341 292 339 289 339 286 338 288 342 287 344 284 342 282 343 281 344 282 351 282 352 279 350 276 350 273 348 275 344 276 342 274 341 277 338 278 339 276 335 276 334 273 332 273 331 268 329 267 326 263 323 263 322 261 321 259 313 258 309 259 307 259 306 257 306 256 304 255 304 255 297 253 298 253 295 249 298 248 296 246 298 244 297 243 296 242 296 240 293 236 291 234 293 230 292 229 293 226 290 228 289 228 280 228 277 224 278 225 275 227 273 226 271 226 270 224 270 205 269 205 268 208 261 207 261Z"  data-id="29" data-name="Rajasthan"/> 
<path d="M687 361L692 364 693 363 702 365 705 361 707 360 712 362 712 361 714 357 717 356 717 354 713 350 711 345 712 343 713 336 714 335 711 328 709 327 706 326 704 325 702 328 700 328 697 331 696 330 691 332 688 332 691 336 691 337 689 345 688 347 688 352 687 355 687 360 687 361Z"  data-id="30" data-name="Sikkim"/> 
<path d="M335 1108L335 1109 335 1109 335 1108ZM356 1088L356 1088 356 1088 356 1088ZM356 1088L356 1088 356 1088 356 1088ZM356 1087L356 1087 356 1087 356 1087ZM357 1086L357 1086 357 1087 357 1086ZM360 1078L360 1078 360 1078 360 1078ZM361 1075L361 1075 361 1075 361 1075ZM370 1069L370 1070 370 1069 370 1069ZM374 1068L373 1069 374 1069 374 1068ZM370 1068L370 1068 370 1068 370 1068ZM378 1067L378 1067 378 1067 378 1067ZM379 1067L379 1067 379 1067 379 1067ZM383 1066L383 1067 383 1067 383 1066ZM387 1066L386 1066 386 1066 387 1066ZM388 1065L388 1066 388 1065 388 1065ZM392 1065L392 1065 392 1065 392 1065ZM398 1063L399 1063 399 1063 398 1063ZM397 1063L397 1063 397 1063 397 1063ZM398 1063L397 1063 397 1063 398 1063ZM401 1060L398 1061 405 1065 402 1063 401 1060ZM410 1058L410 1058 410 1058 410 1058ZM410 1058L410 1058 410 1058 410 1058ZM410 1057L410 1057 410 1057 410 1057ZM416 1023L416 1023 416 1023 416 1023ZM415 1023L415 1023 415 1023 415 1023ZM415 1022L415 1022 415 1023 415 1022ZM413 1022L413 1023 413 1023 413 1022ZM413 1022L412 1022 413 1022 413 1022ZM413 1022L413 1022 413 1022 413 1022ZM416 1022L416 1022 416 1022 416 1022ZM415 1022L415 1022 415 1022 415 1022ZM415 1022L415 1022 415 1022 415 1022ZM412 1022L412 1022 412 1022 412 1022ZM413 1021L413 1021 413 1021 413 1021ZM413 1021L413 1021 413 1021 413 1021ZM420 986L420 986 420 986 420 986ZM420 986L420 986 420 986 420 986ZM426 947L425 947 425 948 426 947ZM437 901L437 902 437 902 437 901ZM359 929L359 929 355 928 355 928 350 927 351 927 347 926 347 924 344 925 342 926 343 929 339 933 338 932 335 933 335 939 337 940 336 944 333 948 331 948 331 951 332 951 336 951 341 952 341 953 337 960 331 961 331 963 329 967 326 967 324 966 317 967 317 969 314 967 314 966 309 967 307 971 308 973 302 973 297 973 295 970 292 971 292 971 292 972 289 974 284 975 285 979 286 979 291 981 296 983 296 984 294 987 293 988 299 989 302 988 303 989 302 991 304 992 304 996 303 995 301 997 303 1001 307 1002 310 1005 308 1009 308 1011 306 1011 307 1015 307 1020 307 1021 307 1024 309 1026 312 1027 315 1025 315 1024 319 1022 322 1022 322 1023 324 1027 323 1030 321 1031 323 1034 321 1040 321 1042 321 1047 319 1050 324 1051 325 1050 329 1054 326 1058 324 1062 323 1066 323 1066 321 1071 319 1073 321 1077 323 1080 320 1084 324 1091 321 1093 320 1099 317 1100 317 1100 327 1107 333 1108 336 1106 342 1105 354 1096 356 1093 356 1089 358 1083 358 1081 359 1076 365 1070 365 1069 371 1068 374 1068 376 1067 377 1065 389 1062 392 1063 397 1062 394 1062 390 1060 386 1055 387 1050 389 1046 396 1036 399 1033 398 1027 404 1022 411 1021 412 1022 413 1021 417 1022 419 1023 422 1022 422 1014 421 1003 421 1003 416 998 417 996 421 996 421 996 421 990 420 986 420 982 419 978 418 976 419 964 419 964 416 963 413 962 415 962 414 959 413 958 414 956 415 958 416 957 417 960 419 958 420 959 420 959 422 954 432 939 432 934 433 935 435 927 435 924 437 910 438 906 437 902 437 902 437 904 433 900 429 899 425 898 425 900 423 904 420 907 417 908 417 910 414 911 413 908 409 909 408 907 403 907 403 910 399 915 399 914 395 916 394 919 391 919 387 916 384 916 378 917 377 919 375 919 374 920 374 922 371 929 369 930 368 932 365 934 361 931 359 932 359 929 359 929Z"  data-id="31" data-name="Tamil Nadu"/> 
<path d="M846 483L846 480 847 473 847 467 845 463 845 463 845 463 842 463 844 459 842 453 842 453 839 453 840 457 838 459 834 459 832 461 833 464 832 468 826 465 827 469 824 467 823 470 821 472 816 471 814 476 812 476 811 478 810 479 811 482 810 486 809 485 809 491 812 496 814 501 816 507 818 511 818 506 819 503 822 506 823 509 825 514 827 514 831 512 832 510 834 509 831 502 833 497 836 495 837 493 835 486 836 484 840 486 841 486 846 483 846 483Z"  data-id="32" data-name="Tripura"/>
<path d="M328 253L328 253 328 253 328 253 328 254 329 254 328 257 323 264 318 267 315 272 314 277 314 281 312 284 313 287 313 287 313 292 314 297 314 298 314 302 317 306 316 311 316 312 316 312 316 314 320 317 321 321 320 322 321 325 321 325 321 325 326 330 326 334 328 335 328 338 326 341 328 347 326 347 320 351 319 352 319 352 319 352 322 358 321 359 322 363 323 363 325 367 330 370 331 370 331 373 332 374 332 376 331 376 330 378 328 380 329 380 329 381 332 382 333 381 334 382 330 385 328 386 324 389 327 391 327 389 329 390 333 388 336 385 348 386 351 385 353 385 352 389 352 389 352 389 357 387 358 389 365 392 369 390 372 391 374 393 377 394 379 396 379 398 381 403 384 403 382 405 383 408 380 414 378 415 379 417 375 424 374 426 373 428 373 435 367 437 366 436 360 438 360 441 358 441 356 445 357 445 356 447 361 453 357 456 357 459 351 464 351 465 353 467 355 474 354 477 355 480 359 483 357 484 361 486 364 482 372 488 374 490 380 483 380 480 377 478 380 478 376 472 372 474 372 472 373 469 372 464 370 463 368 461 368 457 367 455 366 453 364 445 365 444 366 443 372 445 370 441 374 441 375 438 377 438 379 444 378 445 376 444 374 447 376 445 378 445 379 447 376 450 376 452 378 450 380 451 379 449 380 448 382 450 381 453 383 451 386 453 391 453 390 451 392 448 390 447 391 445 393 448 397 447 394 451 394 454 397 455 400 452 407 453 410 454 411 448 413 448 415 445 420 444 422 442 425 442 426 446 429 449 430 451 427 453 425 457 429 457 429 455 432 456 432 453 434 455 436 454 437 452 439 455 442 454 440 452 444 452 444 450 446 450 446 454 443 459 451 459 453 460 456 458 457 459 459 454 460 450 462 450 464 452 467 454 467 451 472 450 471 451 471 454 476 454 477 455 481 456 482 461 484 462 492 463 494 464 494 467 496 468 496 470 498 471 500 471 500 468 501 467 510 468 510 469 514 472 511 474 512 474 511 479 513 480 512 487 510 489 513 491 515 495 515 495 515 495 520 498 523 498 528 495 529 494 533 489 533 489 533 488 534 485 535 480 537 478 534 475 538 472 538 472 538 472 539 468 538 467 538 466 537 464 536 464 534 461 532 457 532 456 531 452 532 450 531 447 534 445 541 441 542 441 548 436 547 436 549 434 555 429 556 426 558 425 561 428 563 427 565 424 567 424 568 426 570 426 572 424 575 424 573 421 571 421 571 420 566 417 563 417 554 411 553 409 553 406 555 406 558 404 557 400 552 398 548 398 548 395 553 394 554 390 559 391 565 390 565 389 562 388 559 385 558 381 557 383 553 381 552 375 551 373 549 374 548 372 549 370 547 368 547 365 545 364 545 363 536 359 528 359 529 362 529 363 526 365 522 361 516 361 511 359 508 359 506 359 507 357 505 351 497 353 491 350 485 346 482 344 479 344 477 347 474 345 470 342 467 341 464 340 460 335 459 336 454 331 452 328 448 328 446 326 438 322 437 321 434 320 434 319 430 316 429 322 426 319 424 319 421 316 421 316 415 311 414 312 414 311 411 316 408 314 408 313 404 312 405 311 402 309 400 311 398 310 396 311 396 310 391 311 389 307 384 304 383 305 382 301 378 299 378 301 373 300 373 297 370 296 368 293 370 293 372 291 373 288 366 286 362 284 361 282 359 278 354 276 351 279 348 280 344 285 342 285 342 281 339 279 337 281 334 274 333 271 336 264 337 264 340 259 333 255 330 253 328 253 328 253Z"  data-id="33" data-name="Uttar Pradesh"/> 
<path d="M372 220L375 225 371 225 369 222 363 222 361 221 360 222 358 222 357 220 354 219 343 223 342 224 339 224 336 228 336 229 333 232 335 235 334 235 333 238 333 240 336 247 336 249 332 251 328 253 328 253 328 253 330 253 333 255 340 259 337 264 336 264 333 271 334 274 337 281 339 279 342 281 342 285 344 285 348 280 351 279 354 276 359 278 361 282 362 284 366 286 373 288 372 291 370 293 368 293 370 296 373 297 373 300 378 301 378 299 382 301 383 305 384 304 389 307 391 311 396 310 396 311 398 310 400 311 402 309 405 311 404 312 408 313 408 314 411 316 414 311 413 311 413 308 416 305 416 300 420 299 419 296 420 297 420 287 424 282 422 276 425 274 428 272 429 271 434 266 440 257 443 256 443 256 436 254 434 251 428 248 423 247 418 245 416 242 417 238 414 236 412 237 408 234 406 233 403 230 399 230 394 231 385 224 384 220 383 220 381 215 379 213 376 212 374 216 373 217 372 220 372 220Z"  data-id="34" data-name="Uttarakhand"/> 
<path d="M721 575L721 577 723 577 721 575ZM733 574L736 576 736 575 733 574ZM729 573L729 575 730 576 729 573ZM723 574L722 574 724 576 723 574ZM735 572L735 572 735 572 735 572ZM731 572L729 573 730 575 731 572ZM738 572L737 573 738 573 738 572ZM726 573L726 572 726 572 726 573ZM724 571L724 572 724 573 724 571ZM738 570L739 574 740 573 738 570ZM732 570L730 572 731 572 732 570ZM714 571L715 575 716 575 715 572 714 571ZM719 571L718 572 720 573 719 571ZM728 570L728 572 729 573 728 570ZM711 571L710 575 711 576 711 571ZM741 569L739 570 741 573 742 573 741 569ZM738 569L739 572 740 571 738 569ZM723 570L722 573 723 574 723 570 723 570ZM735 569L736 573 737 570 735 569ZM718 570L717 572 717 574 718 570ZM711 570L711 573 714 576 713 571 711 570ZM716 569L716 572 717 571 716 569ZM739 568L739 569 741 569 739 568ZM733 568L731 569 732 570 733 573 734 568 733 568ZM717 569L716 570 716 570 717 569ZM710 569L710 570 710 570 710 569ZM713 569L713 569 713 569 713 569ZM724 568L724 570 725 570 724 568ZM714 571L713 569 713 571 714 571ZM739 567L737 568 739 569 739 567ZM725 568L724 568 725 568 725 568ZM713 568L713 569 713 568 713 568ZM719 568L718 569 719 571 719 568ZM709 568L709 568 709 568 709 568ZM730 567L729 568 730 568 730 567ZM732 567L731 569 733 568 732 567ZM731 569L730 568 730 568 731 569ZM735 565L735 567 735 567 735 565ZM709 567L709 567 709 567 709 567ZM723 566L723 566 723 566 723 566ZM720 566L719 568 721 567 720 566ZM736 565L737 568 736 567 736 565ZM724 565L724 566 724 567 724 565ZM721 565L721 566 722 566 721 565ZM722 565L722 565 722 565 722 565ZM715 566L714 568 714 571 716 568 715 566ZM733 564L733 567 736 569 733 564ZM724 565L724 564 723 564 724 565ZM708 565L705 572 705 574 708 575 709 568 708 565ZM731 564L730 566 731 566 731 564ZM725 563L725 567 726 567 725 563ZM708 565L708 565 708 565 708 565ZM732 563L733 564 733 563 732 563ZM723 564L723 566 723 564 723 564ZM718 564L718 564 718 564 718 564ZM719 564L717 565 720 566 719 564ZM728 563L728 567 730 568 729 563 728 563ZM721 563L720 564 720 564 721 563ZM725 562L726 564 726 563 725 562ZM732 562L735 565 737 563 732 562ZM728 562L728 563 731 564 731 562 728 562ZM708 563L708 564 709 563 708 563ZM729 560L728 562 731 562 729 560ZM729 559L729 559 729 560 729 559ZM726 559L725 561 727 561 728 559 726 559ZM707 560L704 563 705 564 707 560ZM731 558L729 559 729 561 734 562 735 561 734 558 731 558ZM728 557L728 558 728 558 728 557ZM738 557L737 559 738 561 740 561 741 559 738 557ZM725 557L725 557 725 557 725 557ZM731 557L730 557 730 558 731 557ZM727 556L727 556 727 556 727 556ZM734 556L733 556 733 556 734 556ZM728 555L727 556 727 556 728 555ZM731 556L730 555 729 557 731 556ZM731 554L731 556 733 555 731 554ZM728 555L728 554 728 554 728 555ZM733 552L732 555 733 556 735 555 733 552ZM736 551L734 553 735 554 734 556 735 559 736 561 739 562 738 560 738 559 737 555 736 551ZM737 551L736 557 739 556 739 554 737 551ZM726 551L725 555 726 558 727 556 730 553 726 551ZM732 552L730 553 727 556 728 557 732 552ZM702 553L702 553 702 553 702 553ZM735 550L734 551 735 552 735 550ZM730 548L728 552 731 552 730 548ZM731 545L730 546 733 549 733 551 735 547 731 545ZM736 544L735 546 735 549 738 551 738 552 740 553 736 544ZM699 546L699 545 699 545 699 546ZM732 544L733 546 733 545 732 544ZM699 545L699 545 698 545 699 545ZM698 544L698 545 698 545 698 544ZM731 541L731 541 731 541 731 541ZM729 540L730 542 729 540 729 540ZM733 538L731 540 731 542 733 543 733 538ZM734 537L734 537 734 537 734 537ZM733 537L733 542 734 542 734 547 736 541 735 538 733 537ZM734 535L734 535 734 535 734 535ZM719 470L719 470 719 470 719 470ZM687 361L686 364 688 368 693 373 694 378 692 386 692 386 692 386 692 387 692 387 692 387 694 387 697 386 695 388 698 391 697 392 699 394 697 396 688 402 689 404 686 404 685 406 685 413 687 413 688 416 693 419 693 421 693 423 694 427 689 425 685 432 687 435 686 438 686 438 685 438 685 442 690 446 693 450 690 452 689 455 691 457 691 461 690 463 688 464 688 469 687 473 684 476 685 478 685 479 682 479 682 480 679 481 679 483 677 485 678 486 674 485 673 486 671 485 670 486 672 490 667 494 659 491 655 494 655 498 652 498 648 500 644 502 641 505 639 509 636 508 633 508 633 505 628 505 630 507 623 509 623 510 625 513 624 513 623 519 626 522 630 521 631 522 634 524 637 527 640 526 643 527 644 526 648 528 646 528 644 534 648 537 649 536 653 539 653 541 657 541 658 543 658 545 657 545 659 547 660 551 662 553 659 553 660 554 657 555 657 555 657 556 661 560 665 560 668 561 668 563 668 567 671 568 673 564 676 564 677 570 681 571 683 571 685 577 685 577 693 575 699 569 702 566 704 561 708 558 709 556 707 554 703 553 701 551 705 549 705 553 710 555 710 559 708 562 709 565 711 569 713 571 712 569 714 567 714 565 715 566 717 568 717 561 716 561 717 564 721 562 721 563 724 562 723 557 725 558 724 555 726 552 727 552 730 549 731 545 731 542 730 542 727 540 732 542 731 540 732 537 734 537 734 532 733 529 734 528 732 524 730 518 732 512 731 512 727 511 728 512 724 510 725 506 725 504 726 504 719 498 717 494 719 487 720 487 722 486 723 482 722 482 721 479 722 475 720 470 715 470 715 471 710 468 707 469 704 466 703 466 700 464 695 459 697 456 697 454 698 454 699 449 701 447 703 449 705 450 706 447 708 447 709 443 709 439 711 437 713 438 720 437 726 435 727 433 722 430 721 425 719 424 716 426 711 425 708 422 707 419 704 418 700 414 694 410 695 409 697 404 696 403 696 401 702 398 702 395 705 392 707 392 705 389 703 388 701 388 701 386 702 382 708 388 710 388 712 390 713 392 715 392 719 396 720 394 721 394 723 396 726 395 726 394 724 394 720 389 722 388 727 389 727 392 728 393 729 397 729 398 733 400 736 403 738 404 739 402 740 404 744 404 745 404 745 401 746 399 745 397 747 395 749 397 749 397 748 394 749 391 752 388 753 388 752 381 751 376 751 376 744 375 744 374 741 373 739 373 737 372 732 372 730 373 726 374 725 370 722 369 719 369 720 368 717 369 716 363 712 362 712 362 707 360 705 361 702 365 693 363 692 364 687 361 687 361Z"  data-id="35" data-name="West Bengal"/>
</g> </svg>
